Love for All and Sharing is the first step to solving all the problems of humanity.

Website I want to share. 
               
   http://www.scenetime.com
 
 
  Credit to EVERYONE for sharing and seeding back
 especially to SCENETIME.COM where i get all my 
 downloads.


 support www.scenetime.com to grow faster.

                             
                                                            
                                                   

.                 ..................................NFO:....................................*******************************************************************************
              Bad.Timing.1980.Criterion.DVDRip.AC3.X264-BARC0DE
*******************************************************************************

-------------------------------------------------------------------------------
                              General Information
-------------------------------------------------------------------------------
Type.................: Movie
Name.................: Bad Timing: A Sensual Obsession
Movie Information....: http://www.imdb.com/title/tt0080408/
Genre................: Drama | Mystery
-------------------------------------------------------------------------------
                                    PLOT
-------------------------------------------------------------------------------
The setting is Vienna. A young American woman is brought to a hospital after 
overdosing on pills, apparently in a suicide attempt. A police detective suspects 
foul play on the part of her lover, an American psychology professor. As doctors 
try to save her life, the detective interrogates the professor, and through 
flashbacks we see the events leading up to the woman's overdose; her stormy and 
intensely sexual relationship with the professor, her heavy drinking and numerous 
affairs, and her estrangement from her Czech husband. A darkly erotic study of 
several rather unsympathetic characters. 

-------------------------------------------------------------------------------
                                    CAST
-------------------------------------------------------------------------------
Art Garfunkel	... 	Alex Linden
Theresa Russell	... 	Milena Flaherty
Harvey Keitel	... 	Inspector Netusil
Denholm Elliott	... 	Stefan Vognic
Daniel Massey	... 	Foppish Man
Dana Gillespie	... 	Amy Miller
William Hootkins	... 	Col. Taylor
Eugene Lipinski	... 	Hospital Policeman
George Roubicek	... 	Policeman #1
Stefan Gryff	... 	Policeman #2
Sevilla Delofski	... 	Czech Receptionist
Robert Walker	... 	Konrad
Gertan Klauber	... 	Ambulance Man

-------------------------------------------------------------------------------
                                    MEDiA iNFO
-------------------------------------------------------------------------------

General
Complete name                    : Bad.Timing.1980.Criterion.DVDRip.AC3.X264-BARC0DE.mkv
Format                           : Matroska
File size                        : 1.46 GiB
Duration                         : 2h 2mn
Overall bit rate                 : 1 708 Kbps

Video
ID                               : 1
Format                           : AVC
Format/Info                      : Advanced Video Codec
Format profile                   : Main@L3.0
Format settings, CABAC           : Yes
Format settings, ReFrames        : 2 frames
Muxing mode                      : Container profile=Unknown@3.0
Codec ID                         : V_MPEG4/ISO/AVC
Duration                         : 2h 2mn
Bit rate                         : 1 517 Kbps
Width                            : 720 pixels
Height                           : 320 pixels
Display aspect ratio             : 2.25:1
Frame rate                       : 23.976 fps
Color space                      : YUV
Chroma subsampling               : 4:2:0
Bit depth                        : 8 bits
Scan type                        : Progressive
Bits/(Pixel*Frame)               : 0.275
Stream size                      : 1.27 GiB (87%)
Writing library                  : x264 core 79

Audio
ID                               : 2
Format                           : AC-3
Format/Info                      : Audio Coding 3
Mode extension                   : CM (complete main)
Codec ID                         : A_AC3
Duration                         : 2h 2mn
Bit rate mode                    : Constant
Bit rate                         : 192 Kbps
Channel(s)                       : 1 channel
Channel positions                : Front: C
Sampling rate                    : 48.0 KHz
Stream size                      : 168 MiB (11%)
Language                         : English

Text
ID                               : 3
Format                           : VobSub
Codec ID                         : S_VOBSUB
Codec ID/Info                    : The same subtitle format used on DVDs
Language                         : English

Menu
00:00:00.000                     : Chapter 1
00:02:00.487                     : Chapter 2
00:06:31.657                     : Chapter 3
00:12:13.099                     : Chapter 4
00:16:05.664                     : Chapter 5
00:19:41.580                     : Chapter 6
00:27:29.547                     : Chapter 7
00:32:22.040                     : Chapter 8
00:34:52.190                     : Chapter 9
00:39:21.684                     : Chapter 10
00:44:05.909                     : Chapter 11
00:49:00.262                     : Chapter 12
00:55:06.169                     : Chapter 13
01:01:31.587                     : Chapter 14
01:09:53.422                     : Chapter 15
01:14:53.689                     : Chapter 16
01:23:33.008                     : Chapter 17
01:31:01.155                     : Chapter 18
01:39:58.859                     : Chapter 19
01:47:11.291                     : Chapter 20
01:51:19.839                     : Chapter 21
01:55:26.419                     : Chapter 22
02:02:14.593                     : Chapter 23